<?xml version="1.0" standalone="no"?>
<!DOCTYPE svg PUBLIC "-//W3C//DTD SVG 20010904//EN"
 "http://www.w3.org/TR/2001/REC-SVG-20010904/DTD/svg10.dtd">
<svg version="1.0" xmlns="http://www.w3.org/2000/svg"
 width="538.000000pt" height="538.000000pt" viewBox="0 0 538.000000 538.000000"
 preserveAspectRatio="xMidYMid meet">
<metadata>
Created by potrace 1.11, written by Peter Selinger 2001-2013
</metadata>
<g transform="translate(0.000000,538.000000) scale(0.100000,-0.100000)"
fill="#000000" stroke="none">
<path d="M482 5365 c-198 -44 -371 -190 -453 -383 l-29 -71 2 -2243 3 -2243
43 -88 c60 -123 162 -225 287 -287 l90 -45 2255 0 2255 0 85 42 c131 64 241
177 301 309 63 139 60 0 57 2359 l-3 2150 -23 65 c-75 208 -214 347 -422 422
l-65 23 -2160 2 c-1807 1 -2170 -1 -2223 -12z"/>
</g>
</svg>
